<?xml version="1.0" encoding="UTF-8" standalone="no"?>
<!-- Uploaded to: SVG Repo, www.svgrepo.com, Generator: SVG Repo Mixer Tools -->

<svg
   fill="#000000"
   height="800px"
   width="800px"
   version="1.1"
   id="Layer_1"
   viewBox="0 0 512 512"
   xml:space="preserve"
   sodipodi:docname="firefly-svgrepo-com.svg"
   inkscape:version="1.2.2 (732a01da63, 2022-12-09)"
   xmlns:inkscape="http://www.inkscape.org/namespaces/inkscape"
   xmlns:sodipodi="http://sodipodi.sourceforge.net/DTD/sodipodi-0.dtd"
   xmlns="http://www.w3.org/2000/svg"
   xmlns:svg="http://www.w3.org/2000/svg"><defs
   id="defs188" /><sodipodi:namedview
   id="namedview186"
   pagecolor="#ffffff"
   bordercolor="#000000"
   borderopacity="0.25"
   inkscape:showpageshadow="2"
   inkscape:pageopacity="0.0"
   inkscape:pagecheckerboard="0"
   inkscape:deskcolor="#d1d1d1"
   showgrid="false"
   inkscape:zoom="0.67125"
   inkscape:cx="400"
   inkscape:cy="400"
   inkscape:window-width="1920"
   inkscape:window-height="1080"
   inkscape:window-x="2024"
   inkscape:window-y="174"
   inkscape:window-maximized="0"
   inkscape:current-layer="Layer_1" />
<path
   style="fill:#b3b3b3;fill-opacity:1;stroke:none;stroke-width:4.7034;stroke-linecap:square"
   d="m 196.54496,132.6462 c -2.02164,-7.45069 -0.78723,-24.75861 2.35395,-33.005089 7.15697,-18.789042 23.22881,-33.366116 42.51257,-38.558689 6.63216,-1.785855 22.58514,-1.768917 29.26982,0.0311 26.93215,7.252076 45.87899,31.767582 45.85714,59.335038 -0.009,11.01168 -1.81003,17.59907 -4.48427,16.39905 -6.57076,-2.94853 -23.22383,-7.84311 -31.73456,-9.32726 -12.91705,-2.25254 -35.97276,-2.21279 -49.14777,0.0847 -8.85647,1.54444 -24.11008,6.05833 -31.25828,9.25002 -1.60821,0.71807 -2.24895,-0.0825 -3.3686,-4.20889 z"
   id="path1617" /><path
   style="fill:#4d4d4d;fill-opacity:1;stroke:none;stroke-width:4.565;stroke-linecap:square"
   d="m 217.7895,314.63424 c 0,-0.26365 1.75867,-6.58948 3.90817,-14.05742 9.28096,-32.24456 13.53238,-60.34139 13.51486,-89.31701 -0.0142,-23.41601 -2.05872,-37.41877 -7.82171,-53.56924 -2.11416,-5.92479 -3.68542,-10.93084 -3.49171,-11.12456 0.19372,-0.19371 4.4191,-1.43355 9.38974,-2.75519 12.60352,-3.35113 32.86154,-3.35113 45.46506,0 4.97065,1.32164 9.22637,2.59181 9.45715,2.8226 0.23079,0.23079 -0.68113,3.1826 -2.02649,6.55956 -6.93104,17.39747 -9.38324,32.58861 -9.37337,58.06683 0.0126,32.45663 4.47509,59.00822 17.11894,101.8566 0.55304,1.87416 -1.77389,1.99718 -37.77565,1.99718 -21.10075,0 -38.36499,-0.21571 -38.36499,-0.47935 z"
   id="path1615" /><path
   style="fill:#ffffff;fill-opacity:1;stroke:none;stroke-width:4.32342;stroke-linecap:square"
   d="m 370.96809,363.26956 c -20.77163,-5.48874 -34.39272,-18.79033 -47.59697,-46.4805 -21.37689,-44.82876 -31.01771,-110.28492 -21.01041,-142.64979 5.9928,-19.38146 16.61587,-24.0737 38.18397,-16.86596 24.26101,8.10767 52.05674,27.35909 80.18335,55.53525 42.32005,42.3946 55.03312,77.05732 39.17456,106.81104 -9.10843,17.08916 -32.28633,34.58226 -55.42796,41.83325 -9.44536,2.95952 -25.82148,3.84742 -33.50654,1.81671 z"
   id="path1544" /><path
   style="fill:#ffffff;fill-opacity:1;stroke-width:4.28394;stroke-linecap:square"
   d="m 114.15773,362.23823 c -25.192336,-5.89076 -51.242464,-24.19132 -61.292801,-43.05901 -9.222718,-17.31398 -8.571441,-37.56591 1.87348,-58.25719 23.45853,-46.47108 97.551311,-105.9872 131.945551,-105.9872 11.36598,0 17.86776,5.88027 22.27995,20.15018 7.88792,25.51122 2.69145,78.14324 -11.80967,119.61336 -4.38348,12.53581 -13.60759,31.81938 -19.0637,39.85387 -8.66416,12.75855 -19.69898,21.81937 -31.84517,26.14846 -8.14121,2.90166 -23.17344,3.62195 -32.08764,1.53753 z"
   id="path780" /><path
   style="fill:#2aff80;stroke-width:4.69631;stroke-linecap:square"
   d="m 240.92453,380.726 c -14.39104,-2.6194 -28.60898,-8.2576 -39.51919,-15.67156 -6.53074,-4.43793 -16.43576,-12.8339 -16.43653,-13.93241 -3.1e-4,-0.44792 2.75072,-5.07085 6.11342,-10.27318 l 6.11401,-9.45879 H 256 314.80376 l 6.114,9.45879 c 3.36271,5.20233 6.11375,9.82526 6.11343,10.27318 -7.7e-4,1.09851 -9.90579,9.49448 -16.43653,13.93241 -14.94933,10.15871 -32.02534,15.59412 -51.07243,16.25668 -7.10317,0.24708 -15.47214,-0.0162 -18.5977,-0.58512 z"
   id="path363" /><g
   id="g165">
	<g
   id="g163">
		<path
   d="M476.474,238.34c-24.733-42.83-89.29-100.964-138.046-106.229c1.017-5.251,1.534-10.626,1.534-16.069    c0-33.325-19.512-62.177-47.707-75.735l11.938-10.338c7.125-6.17,7.898-16.948,1.728-24.074    c-6.172-7.126-16.948-7.901-24.074-1.728l-25.849,22.387L230.146,4.167c-7.127-6.171-17.904-5.396-24.073,1.728    c-6.171,7.125-5.396,17.903,1.729,24.074l11.938,10.338c-28.198,13.558-47.709,42.409-47.709,75.736    c0,5.445,0.518,10.824,1.535,16.077c-48.756,5.269-113.31,63.384-138.049,106.224C5.143,290.966,23.009,341.917,73.308,370.957    c31.49,18.182,67.637,22.55,98.469,3.906c21.562,23.282,51.943,36.771,84.219,36.771s62.657-13.488,84.219-36.771    c30.901,18.686,67.067,14.223,98.469-3.907C488.703,342.078,507.008,291.24,476.474,238.34z M255.996,66.197    c27.477,0,49.833,22.361,49.833,49.845c0,5.154-0.781,10.202-2.298,15.014c-29.118-13.271-64.066-14.124-95.071,0    c-1.518-4.812-2.298-9.861-2.298-15.014C206.162,88.558,228.517,66.197,255.996,66.197z M227.65,160.01    c18.315-6.914,38.373-6.921,56.695,0.001c-19.682,37.457-9.29,100.984,4.948,141.628h-66.588    C236.785,261.447,247.392,197.552,227.65,160.01z M163.16,338.799c-0.001,0-0.002,0.001-0.002,0.001    c-25.683,23.992-56.624,11.925-72.785,2.596c-34.241-19.771-46.043-50.047-25.296-85.987    c26.185-45.347,102.221-103.646,126.436-86.858C218.143,187.195,199.912,304.484,163.16,338.799z M197.042,351.91    c3.856-5.067,7.397-10.611,10.503-16.137h96.907c3.277,5.828,6.777,11.254,10.496,16.138    C283.077,386.026,228.909,386.019,197.042,351.91z M421.617,341.397c-16.158,9.329-47.096,21.398-72.787-2.598    c-36.404-33.994-55.296-151.281-28.38-170.227c23.297-16.037,99.022,39.317,126.461,86.835    C467.585,291.216,456.008,321.54,421.617,341.397z"
   id="path161" />
	</g>
</g>
<g
   id="g171"
   style="fill:#2aff80;fill-opacity:1">
	<g
   id="g169"
   style="fill:#2aff80;fill-opacity:1">
		<path
   d="M255.996,435.783c-9.425,0-17.067,7.641-17.067,17.067v42.084c0,9.425,7.641,17.067,17.067,17.067    c9.425,0,17.067-7.641,17.067-17.067V452.85C273.062,443.424,265.421,435.783,255.996,435.783z"
   id="path167"
   style="fill:#2aff80;fill-opacity:1" />
	</g>
</g>
<g
   id="g177"
   style="fill:#2aff80;fill-opacity:1">
	<g
   id="g175"
   style="fill:#2aff80;fill-opacity:1">
		<path
   d="M173.424,415.551c-8.356-4.357-18.665-1.115-23.023,7.243l-19.456,37.317c-4.358,8.358-1.114,18.666,7.243,23.023    c8.36,4.359,18.667,1.11,23.023-7.243l19.456-37.317C185.025,430.217,181.781,419.909,173.424,415.551z"
   id="path173"
   style="fill:#2aff80;fill-opacity:1" />
	</g>
</g>
<g
   id="g183"
   style="fill:#2aff80;fill-opacity:1">
	<g
   id="g181"
   style="fill:#2aff80;fill-opacity:1">
		<path
   d="M381.046,460.111l-19.456-37.317c-4.357-8.357-14.665-11.602-23.023-7.243c-8.358,4.358-11.601,14.666-7.243,23.023    l19.456,37.317c4.358,8.359,14.667,11.6,23.023,7.243C382.161,478.776,385.404,468.468,381.046,460.111z"
   id="path179"
   style="fill:#2aff80;fill-opacity:1" />
	</g>
</g>
<path
   style="fill:#f9f9f9;fill-opacity:0;stroke-width:5.95903;stroke-linecap:square"
   d="m 350.09311,469.39288 c 0,-0.34415 2.29573,-8.60173 5.10163,-18.35018 12.11512,-42.09119 17.66481,-78.76804 17.64194,-116.59205 -0.0185,-30.56664 -2.6874,-48.84547 -10.21026,-69.92786 -2.75976,-7.73407 -4.81085,-14.26884 -4.55798,-14.52171 0.25287,-0.25287 5.76857,-1.87132 12.25712,-3.59655 16.4523,-4.37448 42.89658,-4.37448 59.34888,0 6.48855,1.72523 12.04385,3.38328 12.34511,3.68454 0.30127,0.30127 -0.88913,4.15448 -2.64533,8.56268 -9.04759,22.71019 -12.24863,42.5403 -12.23574,75.7989 0.0164,42.36802 5.84166,77.02776 22.34661,132.9609 0.72192,2.44648 -2.31559,2.60707 -49.31134,2.60707 -27.54435,0 -50.08064,-0.28158 -50.08064,-0.62574 z"
   id="path782"
   transform="scale(0.64)" /><path
   style="fill:#f9f9f9;fill-opacity:0;stroke-width:5.95903;stroke-linecap:square"
   d="m 581.75047,548.44414 c -28.6298,-7.5652 -47.40393,-25.89895 -65.60351,-64.06467 -29.46404,-61.78804 -42.7521,-152.0071 -28.95891,-196.61602 8.25995,-26.71371 22.90186,-33.18108 52.62945,-23.24656 33.43925,11.1749 71.75047,37.70937 110.51773,76.54493 58.33026,58.43303 75.85285,106.20909 53.9948,147.21903 -12.55427,23.5542 -44.50067,47.66516 -76.39707,57.65929 -13.01866,4.07915 -35.59007,5.30296 -46.18249,2.504 z"
   id="path784"
   transform="scale(0.64)" /></svg>
